<svg id="canvas" height="auto" xmlns="http://www.w3.org/2000/svg" version="1.1" xmlns:xlink="http://www.w3.org/1999/xlink" viewBox="0 0 1366 768" width="auto" style="width: auto; height: auto;"><rect width="1366" height="768" fill="#f8f9fa"/><circle r="13.80769595053371" cx="13.80769595053371" cy="13.80769595053371" transform="matrix(1,0,0,1,572.7076176321474,600.872396711282)" stroke-width="2" stroke="#002b5b" fill="none"/><circle r="11.00985293059204" cx="11.00985293059204" cy="11.00985293059204" transform="matrix(1,0,0,1,418.61648402181874,232.85853945391887)" stroke-width="2" stroke="#002b5b" fill="none"/><polyline points="1071.5023193359375,702.5408268418522 1115.8236674606019,658.2194787171878 1160.1450155852663,702.5408268418522 1204.4663637099306,658.2194787171878 1248.787711834595,702.5408268418522 1293.1090599592594,658.2194787171878 1337.4304080839238,702.5408268418522" stroke-width="2" stroke="#002b5b" fill="none"/><svg width="61.50081034854874" height="61.50081034854874" stroke-width="2" stroke="#002b5b" fill="none" x="1290.7659118407691" y="468.9309417125306"><line x1="0" y1="15.375202587137185" x2="30.75040517427437" y2="15.376202587137184"/><line x1="15.375202587137185" y1="0" x2="15.376202587137184" y2="30.75040517427437"/></svg><svg width="76.35487945986532" height="76.35487945986532" stroke-width="2" stroke="#002b5b" fill="none" x="760.582312014043" y="499.1302856268187"><line x1="0" y1="19.08871986496633" x2="38.17743972993266" y2="19.08971986496633"/><line x1="19.08871986496633" y1="0" x2="19.08971986496633" y2="38.17743972993266"/></svg><circle r="13.654303824522938" cx="13.654303824522938" cy="13.654303824522938" transform="matrix(1,0,0,1,1292.093435491613,225.16341005775)" stroke-width="2" stroke="#002b5b" fill="none"/><svg width="47.28003551433299" height="47.28003551433299" stroke-width="2" stroke="#002b5b" fill="none" x="1188.0199727043814" y="448.9680174410263"><line x1="0" y1="11.820008878583247" x2="23.640017757166493" y2="11.821008878583246"/><line x1="11.820008878583247" y1="0" x2="11.821008878583246" y2="23.640017757166493"/></svg><circle r="24.648421743952515" cx="24.648421743952515" cy="24.648421743952515" transform="matrix(1,0,0,1,1014.2423436602312,698.9043782379965)" stroke-width="2" stroke="#002b5b" fill="none"/><polyline points="479.14154052734375,108.09117063313718 514.161065322428,73.07164583805285 549.1805901175123,108.09117063313718 584.2001149125967,73.07164583805285 619.219639707681,108.09117063313718 654.2391645027653,73.07164583805285 689.2586892978497,108.09117063313718" stroke-width="2" stroke="#002b5b" fill="none"/><svg width="41.122869771219186" height="41.122869771219186" stroke-width="2" stroke="#002b5b" fill="none" x="955.5366261042544" y="253.79466369983058"><line x1="0" y1="10.280717442804796" x2="20.561434885609593" y2="10.281717442804796"/><line x1="10.280717442804796" y1="0" x2="10.281717442804796" y2="20.561434885609593"/></svg><polyline points="499.2222595214844,586.7031893889754 533.8119222846329,552.1135266258268 568.4015850477815,586.7031893889754 602.9912478109301,552.1135266258268 637.5809105740785,586.7031893889754 672.1705733372271,552.1135266258268 706.7602361003757,586.7031893889754" stroke-width="2" stroke="#002b5b" fill="none"/><circle r="15.372755464102433" cx="15.372755464102433" cy="15.372755464102433" transform="matrix(1,0,0,1,973.9982103069071,494.05115948383207)" stroke-width="2" stroke="#002b5b" fill="none"/><svg width="87.5378755664477" height="87.5378755664477" stroke-width="2" stroke="#002b5b" fill="none" x="834.7984319480128" y="176.58343521782797"><line x1="0" y1="21.884468891611924" x2="43.76893778322385" y2="21.885468891611925"/><line x1="21.884468891611924" y1="0" x2="21.885468891611925" y2="43.76893778322385"/></svg><svg width="47.4110005656261" height="47.4110005656261" stroke-width="2" stroke="#002b5b" fill="none" x="83.05989291311366" y="263.80365565706916"><line x1="0" y1="11.852750141406524" x2="23.70550028281305" y2="11.853750141406524"/><line x1="11.852750141406524" y1="0" x2="11.853750141406524" y2="23.70550028281305"/></svg><circle r="27.62328664467096" cx="27.62328664467096" cy="27.62328664467096" transform="matrix(1,0,0,1,746.3682267535268,754.4709289033277)" stroke-width="2" stroke="#002b5b" fill="none"/><polyline points="13.626422882080078,481.014242591375 38.411976727867696,456.2286887455874 63.197530573655314,481.014242591375 87.98308441944293,456.2286887455874 112.76863826523055,481.014242591375 137.55419211101815,456.2286887455874 162.33974595680579,481.014242591375" stroke-width="2" stroke="#002b5b" fill="none"/><svg width="83.29933507589392" height="83.29933507589392" stroke-width="2" stroke="#002b5b" fill="none" x="1214.4008492246637" y="664.489498183219"><line x1="0" y1="20.82483376897348" x2="41.64966753794696" y2="20.82583376897348"/><line x1="20.82483376897348" y1="0" x2="20.82583376897348" y2="41.64966753794696"/></svg><svg width="62.97316579890287" height="62.97316579890287" stroke-width="2" stroke="#002b5b" fill="none" x="934.464199042453" y="605.6532442462653"><line x1="0" y1="15.743291449725717" x2="31.486582899451435" y2="15.744291449725717"/><line x1="15.743291449725717" y1="0" x2="15.744291449725717" y2="31.486582899451435"/></svg><svg width="51.05461405537003" height="51.05461405537003" stroke-width="2" stroke="#002b5b" fill="none" x="42.68715978474906" y="739.4774385913446"><line x1="0" y1="12.763653513842508" x2="25.527307027685016" y2="12.764653513842507"/><line x1="12.763653513842508" y1="0" x2="12.764653513842507" y2="25.527307027685016"/></svg><circle r="13.85900811033198" cx="13.85900811033198" cy="13.85900811033198" transform="matrix(1,0,0,1,378.1252160200674,574.3411195238997)" stroke-width="2" stroke="#002b5b" fill="none"/></svg>